<svg xmlns="http://www.w3.org/2000/svg" version="1.1" xmlns:xlink="http://www.w3.org/1999/xlink" width="62" height="80"><svg width="62" height="80" viewBox="0 0 62 80" fill="none" xmlns="http://www.w3.org/2000/svg">
<g clip-path="url(#clip0_4001_31273)">
<path d="M59.6684 8.45432C59.1339 9.41451 58.5767 10.4801 58.1673 11.6979C57.7124 13.0094 57.5191 14.3911 57.5532 15.9133V38.7236C57.5532 38.9344 57.394 39.0984 57.1893 39.0984H31.3636C31.1589 39.0984 30.9996 38.9344 30.9996 38.7236V2.17798C30.9996 1.9672 31.1816 1.79156 31.3863 1.80327C35.1049 2.06088 37.9707 3.68852 40.7454 5.2576L41.098 5.45667C42.2806 6.17095 43.5088 6.55737 44.6688 6.58079C44.7256 6.58079 44.7711 6.58079 44.828 6.58079C47.0682 6.58079 49.2517 5.36299 50.9688 3.185C51.0826 3.04449 51.2759 2.99765 51.4351 3.09133L59.5319 7.95081C59.7025 8.0562 59.7594 8.27868 59.6684 8.46603M54.4259 66.4871V40.8899H57.5646V61.2061C57.485 63.3138 56.3364 65.2342 54.4259 66.4871ZM46.8977 69.7072C46.4769 69.8478 46.022 69.9883 45.5671 70.1405V40.8899H48.7058V69.1101C48.2282 69.274 47.5914 69.4731 46.8977 69.7072ZM39.8584 72.096C38.7667 72.5176 37.6864 72.9742 36.7198 73.4309V40.9016H39.8584V72.096ZM27.5994 74.637C26.1438 73.7471 23.642 72.6112 21.2084 71.7447C19.514 71.1475 17.0804 70.3513 15.1244 69.719C13.9531 69.3325 12.941 69.0047 12.5884 68.8759C12.5657 68.8759 12.5543 68.8759 12.5316 68.8642C11.292 68.466 9.74543 67.8688 7.66436 66.5457C5.71975 65.3044 4.54844 63.3606 4.45746 61.2295V41.288C4.45746 41.0773 4.62804 40.9133 4.82136 40.9133H30.6471C30.8518 40.9133 31.011 41.0773 31.011 41.288V76.1475C31.0338 76.9906 30.2718 76.8267 30.1467 76.6862C29.9534 76.5105 29.7601 76.3232 29.5554 76.1475C28.9299 75.6089 28.259 75.0585 27.5994 74.6604M4.44609 16.6979V16.733L4.45746 6.75643L7.45966 4.96486V39.1218H4.44609V16.6979ZM13.2025 5.2576C14.1919 5.94847 15.2608 6.38172 16.3639 6.53395V39.1218H13.2025V5.2576ZM22.1068 4.77751C23.1302 4.20374 24.1651 3.65339 25.2568 3.17329V39.1101H22.1068V4.77751ZM61.7381 7.2014L51.0939 0.831373C51.0029 0.784534 50.912 0.749405 50.821 0.749405C50.639 0.749405 50.4685 0.843082 50.3661 1.00702C48.9787 3.25526 47.0114 4.80093 44.828 4.80093C44.7938 4.80093 44.7484 4.80093 44.7142 4.80093C43.7476 4.77751 42.781 4.4028 41.9509 3.89929C38.8349 2.13114 35.5371 0.163925 31.011 -0.0117188C26.485 0.163925 23.1871 2.13114 20.0712 3.89929C19.241 4.4028 18.2744 4.77751 17.3078 4.80093C17.2737 4.80093 17.2282 4.80093 17.1941 4.80093C15.0107 4.80093 13.0433 3.24355 11.6559 1.00702C11.5536 0.843082 11.383 0.749405 11.201 0.749405C11.1101 0.749405 11.0191 0.772825 10.9281 0.831373L0.272575 7.2014C0.0110192 7.35362 -0.0799566 7.6932 0.0678791 7.96252C0.750198 9.22716 1.64858 10.6323 2.20581 12.2834C2.64932 13.5831 2.75166 14.8009 2.71755 15.8899V61.2295C2.80852 63.8876 4.23002 66.4286 6.73186 68.0211C9.00625 69.4731 10.7348 70.1171 11.9971 70.5269C12.9864 70.8899 17.8878 72.4239 20.6284 73.3958C23.1757 74.3091 25.5297 75.4098 26.7124 76.1475C27.2583 76.4754 27.8724 76.9789 28.441 77.4707C29.3052 78.2084 29.9534 78.9813 30.4424 79.6838C30.5789 79.8829 30.7836 79.9883 30.9996 79.9883C31.2157 79.9883 31.4204 79.8946 31.5569 79.6838C32.0459 78.9813 32.7054 78.2084 33.5583 77.4707C34.1269 76.9789 34.741 76.4754 35.2869 76.1475C36.4696 75.4215 38.8236 74.3091 41.3709 73.3958C44.1115 72.4239 49.0129 70.8782 50.0022 70.5269C51.2645 70.1171 52.993 69.4731 55.2674 68.0211C57.7579 66.4286 59.1908 63.8876 59.2931 61.2295V15.9016C59.259 14.8126 59.35 13.5948 59.7935 12.2951C60.3507 10.644 61.2491 9.23887 61.9314 7.97423C62.0793 7.70491 61.9883 7.36533 61.7267 7.21311" fill="#003DA5"></path>
<path d="M11.8268 52.4005V47.2834C11.8268 47.2834 11.8268 46.0539 12.6001 45.2694C13.055 44.801 13.7145 44.5551 14.5561 44.5551C15.318 44.5551 15.8866 44.7541 16.2846 45.1757C16.9555 45.8666 17.0465 47.0726 17.0579 47.904C17.0579 48.0563 17.0579 48.1968 17.0579 48.3256C17.0579 48.3373 17.0579 48.3256 17.0579 48.3841C17.0579 48.4661 17.0465 48.6183 17.2853 48.6183H18.1837C18.3998 48.6183 18.3998 48.4895 18.3998 48.3841V48.3256C18.3998 48.1968 18.3998 48.0563 18.3998 47.904C18.3998 47.0726 18.5135 45.8666 19.1731 45.1757C19.5711 44.7541 20.1397 44.5551 20.9016 44.5551C21.7431 44.5551 22.4027 44.7893 22.8576 45.2694C23.6195 46.0539 23.6309 47.2717 23.6309 47.2951V52.4005H11.8268ZM25.7802 52.4005H24.9728V47.2951C24.9728 47.2249 24.9728 45.5036 23.8242 44.3092C23.1078 43.5598 22.1298 43.1851 20.913 43.1851C19.7872 43.1851 18.8888 43.5246 18.2292 44.2155C18.0245 44.4263 17.8767 44.6605 17.7402 44.8947C17.6037 44.6488 17.4445 44.4146 17.2512 44.2155C16.5916 43.5363 15.6933 43.1851 14.5788 43.1851C13.362 43.1851 12.384 43.5598 11.6676 44.3092C10.5076 45.5153 10.519 47.2249 10.519 47.2951V52.4005H9.71159C9.62062 52.4005 9.54102 52.4825 9.54102 52.5762V53.6066C9.54102 53.7003 9.62062 53.7822 9.71159 53.7822H10.519V54.4029C10.519 54.4965 10.5986 54.5785 10.6896 54.5785H11.6903C11.7813 54.5785 11.8609 54.4965 11.8609 54.4029V53.7822H17.0124C17.0124 53.7822 17.092 53.8174 17.092 53.8642V55.1991C15.3293 55.3279 13.6918 55.9368 12.4522 56.979C11.0649 58.1265 10.2688 59.7073 10.2688 61.3232C10.2688 65.8548 14.3059 67.4708 17.763 67.4708C19.3323 67.4708 21.6181 67.0258 23.7219 64.9298C23.7901 64.8595 23.7901 64.7424 23.7219 64.6722L23.0168 63.9462C22.9486 63.8759 22.8462 63.8876 22.778 63.9462C20.9926 65.7143 19.0594 66.089 17.7516 66.089C16.7167 66.089 11.588 65.8548 11.588 61.3232C11.588 60.1288 12.2021 58.9345 13.271 58.0563C14.2831 57.2132 15.6136 56.7096 17.0806 56.5808V61.8502C17.0806 61.9438 17.1602 62.0258 17.2512 62.0258H18.2519C18.3429 62.0258 18.4225 61.9438 18.4225 61.8502V56.5808C20.8448 56.815 22.4141 58.2319 22.9145 58.7471C22.9827 58.8174 23.0737 58.8057 23.1419 58.7471L23.8697 58.0563C23.9379 57.986 23.9493 57.8806 23.8697 57.8103C23.2897 57.2014 21.3679 55.445 18.4112 55.2108V53.8759C18.4112 53.8759 18.4453 53.794 18.4908 53.794H23.6423V54.4146C23.6423 54.5082 23.7219 54.5902 23.8128 54.5902H24.8136C24.9046 54.5902 24.9842 54.5082 24.9842 54.4146V53.794H25.7916C25.8825 53.794 25.9621 53.712 25.9621 53.6183V52.5879C25.9621 52.4942 25.8825 52.4122 25.7916 52.4122" fill="#003DA5"></path>
<path d="M53.3797 14.4966V13.068C53.482 13.1382 53.5844 13.2085 53.6753 13.2788C54.062 13.6066 54.3463 14.0282 54.5169 14.4966H53.3797ZM54.5965 17.3303H53.3683V15.1874H54.6988C54.8125 15.8432 54.767 16.5809 54.5965 17.3303ZM53.3683 20.0703V17.9977H54.3918C54.153 18.7003 53.8118 19.4029 53.3683 20.0703ZM52.7087 20.9017C52.106 21.5692 51.4009 22.0961 50.6845 22.4474V20.7378H52.8566C52.8566 20.7378 52.7542 20.8549 52.7087 20.9017ZM52.7087 20.0703H50.6845V17.9977H52.7087V20.0703ZM50.6845 15.1991H52.7087V17.342H50.6845V15.1991ZM50.6845 12.8221C51.3896 12.6113 52.0946 12.5879 52.7201 12.7752V14.52H50.6845V12.8221ZM50.0818 14.4966H48.0462C48.6717 13.8759 49.3767 13.349 50.0818 13.0446V14.4966ZM50.0818 17.342H48.0576V15.1991H50.0818V17.342ZM50.0818 20.0703H48.0576V17.9977H50.0818V20.0703ZM50.0818 22.6933C49.3767 22.9392 48.683 23.0094 48.0576 22.904V20.7261H50.0818V22.6933ZM47.4094 20.082H45.8059C45.7377 19.4263 45.8059 18.7354 45.9993 17.9977H47.4094V20.082ZM46.8522 22.3303C46.3973 21.9204 46.0902 21.3701 45.9197 20.7261H47.3866V22.6816C47.2047 22.5762 47.0114 22.4708 46.8522 22.3186M47.1819 15.4567C47.2502 15.3631 47.3184 15.2694 47.3866 15.1757V17.342H46.1812C46.42 16.698 46.7498 16.0656 47.1819 15.4567ZM42.6218 20.0703H41.0183V17.986H42.4285C42.6218 18.712 42.69 19.4029 42.6218 20.0703ZM41.5756 22.3186C41.4164 22.4591 41.223 22.5762 41.0411 22.6816V20.7261H42.5081C42.3375 21.3584 42.0304 21.9204 41.5756 22.3303M41.0411 15.1874C41.1093 15.2811 41.1775 15.3748 41.2458 15.4684C41.6779 16.0773 42.0077 16.7214 42.2465 17.3537H41.0411V15.1757V15.1874ZM38.3459 14.5083V13.0563C39.0624 13.3607 39.7674 13.8994 40.3815 14.5083H38.3459ZM38.3459 15.2108H40.3701V17.3537H38.3459V15.2108ZM40.3701 20.082H38.3459V18.0094H40.3701V20.082ZM38.3459 22.705V20.7378H40.3701V22.9158C39.7447 23.0094 39.051 22.9509 38.3459 22.705ZM37.7432 14.5317H35.7076V12.787C36.3331 12.5996 37.0381 12.623 37.7432 12.8338V14.5317ZM37.7432 17.3537H35.719V15.2108H37.7432V17.3537ZM35.719 18.0094H37.7432V20.082H35.719V18.0094ZM37.7432 22.4474C37.0268 22.0961 36.3331 21.5692 35.7304 20.9017C35.6849 20.8432 35.628 20.7963 35.5825 20.7378H37.7432V22.4474ZM35.0594 17.2951H33.8312C33.6493 16.5457 33.6152 15.8549 33.7289 15.1991H35.0594V17.2951ZM35.0594 20.082C34.6159 19.4146 34.2748 18.712 34.0359 18.0094H35.0594V20.082ZM34.7637 13.3022C34.8547 13.2202 34.9571 13.1499 35.0594 13.0914V14.52H33.9109C34.0928 14.0633 34.3657 13.6418 34.7637 13.3139M54.1188 12.705C52.0833 10.9837 48.7626 12.0492 46.6702 14.9181C44.8052 17.4708 44.3844 20.5855 45.7718 22.4708L44.2593 24.1687L42.7355 22.4357C44.1229 20.5504 43.6566 17.4708 41.7916 14.9181C39.6992 12.0492 36.3786 10.9837 34.343 12.705C32.3074 14.4263 32.5462 17.8572 34.65 20.7261C36.4809 23.2319 39.2557 24.4848 41.314 23.5949L43.0539 25.527L35.7531 33.63C35.5257 33.8877 35.5257 34.2741 35.7531 34.5317L36.0374 34.8361C36.2876 35.1172 36.7197 35.1172 36.9813 34.8361L44.2139 26.8033L51.3327 34.6839C51.5829 34.9649 52.015 34.9649 52.2766 34.6839L52.5495 34.3795C52.777 34.1336 52.777 33.7354 52.5495 33.4895L45.4193 25.4684L47.1706 23.5949C49.2289 24.4966 52.0037 23.2436 53.8345 20.7261C55.927 17.8572 56.1658 14.4263 54.1416 12.705" fill="#003DA5"></path>
</g>
<defs>
<clipPath id="SvgjsClipPath1023">
<rect width="62" height="80" fill="white"></rect>
</clipPath>
</defs>
</svg><style>@media (prefers-color-scheme: light) { :root { filter: none; } }
@media (prefers-color-scheme: dark) { :root { filter: none; } }
</style></svg>